<svg xmlns="http://www.w3.org/2000/svg" viewBox="0 0 208.22 208.22"><defs><style>.cls-1{fill:#231f20;}.cls-2{fill:none;stroke:#231f20;stroke-miterlimit:10;stroke-width:6px;}</style></defs><g id="Layer_2" data-name="Layer 2"><g id="Layer_1-2" data-name="Layer 1"><path class="cls-1" d="M122.13,173.53c-2.26,2.39-5,4.57-5.5,8.56a26.65,26.65,0,0,0,8.94-.35c2.62-.42,5.23-1,7.81-1.63,6.23-1.45,5.1-6.06,1.68-9.75-4.05-4.36-4.5-6.08-5.74-12.48a7.8,7.8,0,0,0-2.07-4.41c-1.23-1.1-3.35-1.36-4.47-.15-4.3,4.62,3.28,11.27,2.1,15.79A10.15,10.15,0,0,1,122.13,173.53Z"/><path class="cls-1" d="M61.8,62.15c-1.5-2-10.28-1.29-12.45-.11C45.2,64.29,37,65.2,37.78,64.59a56.53,56.53,0,0,1,7-5.29,36.19,36.19,0,0,1,13.53-5.87,4.31,4.31,0,0,1,1.78-.11,4.84,4.84,0,0,1,2,1.1c1.6,1.26,4.7,2.92,1.83,4.23C61.71,59.67,64.59,65.79,61.8,62.15Z"/><path class="cls-1" d="M40.61,56c2.16-.7,4.49-.62,6.76-.87a23.18,23.18,0,0,0,10.3-3.78c1.72-1.15,3.32-2.55,5.28-3.2a.85.85,0,0,1,.18,1.15c-.2.39-.54.68-.75,1.06a19.34,19.34,0,0,0-.54,1.92,3.77,3.77,0,0,1-1.65,1.63,30.32,30.32,0,0,1-7.66,2.86c-3.07.84-6.22,1.69-9.38,1.36-2.76-.28-3.93.06-5.7,2C35.8,58.22,39.06,56.46,40.61,56Z"/><path class="cls-1" d="M107.77,159.59c-2.62,1.5-12,4-14.62,5.46-2,1.13-4,2.35-5.2,4.31-1.44,2.44-1.18,5.48-1.73,8.26a2.56,2.56,0,0,1-.49,1.24,2.76,2.76,0,0,1-1.48.72A40.72,40.72,0,0,1,59.47,178c3-2.14,6.81-2.6,10.25-3.9,5.38-2,14.44-10.59,21.16-15.89a39.33,39.33,0,0,1,4.92-3.43c4.83-2.64,9.44-1.9,12,0C108.74,155.53,105.79,160.61,107.77,159.59Z"/><path class="cls-1" d="M184,119.36a84.76,84.76,0,0,1-60.13-15.78c-3.76-2.78-7.65-6-12.32-6.21-4.09-.16-8.29,3.54-11.9,1.19-3-1.92-13.2-3.44-13.94-6.61-2.24-9.66-8.38-19.68-10.82-29.3-2.12-8.37-3-12.29-8.33-19.09-1.23-1.57-2.59-2.12-4.37-3-3.57-1.79-9-1.49-12.21.88-1.71,1.27-2.33,1.67-3,2.2A9.23,9.23,0,0,0,44.65,48c-4.32,2.5-12.27,4.9-13.2,5.47-1.63,1-1.62,2.09-.24,1.82s11.37-2,16.77-.06S56.32,58,58.22,59.12a16.42,16.42,0,0,1,4.66,4.33,54.33,54.33,0,0,1,10.93,28.4c.86,10.14,8.92,14.33,8.44,24.49-.29,6.18-.34,12.66,2.43,18.18,1.5,3,4.35,4.76,5.95,7.44,2,3.29,2.31,7.54,4,11.1,1.58,3.33,1.54,5.71,4.26,8.11.64.57,5,.86,6.73.48s6.89-3,10.29-3a33.31,33.31,0,0,1,5.86.49s4.23-1.32,7.31-2.3c4.78-1.52,6.85-2.18,10-5.7a38.4,38.4,0,0,0,2.85-4.06c3.2-4.65,8.29-7.6,13.36-10.05a127.62,127.62,0,0,1,21.82-8.17c2.36-.64,4.85-1.28,6.58-3S185.92,120.91,184,119.36ZM51.37,48.16a2.76,2.76,0,0,1-3-1.21c-.22-.54,1-2.37,1.94-2.59s1.58.47,3,1.21C53.06,46,52.67,47.64,51.37,48.16Z"/><circle class="cls-1" cx="50.3" cy="46.41" r="0.67"/><circle class="cls-2" cx="104.11" cy="104.11" r="101.11"/><path class="cls-1" d="M121.7,72.9c6-5.26,13.65-7.28,19.86-13.88,4.4-4.67,16.4-9.47,18.22-11.49s3.72-1.4,4.08,1-1.39,6.56-1.39,6.56,2.36,1,2.42,3-2.4,5-2.4,5a3.92,3.92,0,0,1,2.84,2.84c.39,2.24-1.33,5.35-1.33,5.35a8.19,8.19,0,0,1,1.75,2c.72,1.59-1.27,4.79-1.27,4.79s2.45.92,2.89,2.15-1.64,3-2.59,3.64c.73.29,1.45.58,2.14.89.2,1.39-2.87,4.35-2.87,4.35s3.6,0,3,2.49-4.16,5.16-5.49,5.54c1,.53,3.61,1.1,3,2.79s-4.47,3.29-4.47,3.29,2.68-.42,2.3,1.65-2.88,2.87-3.39,3.52a4.79,4.79,0,0,1-2,1.37c-4.22,1.83-12.4,1.09-15.7,6.41a17,17,0,0,1-1.55,2.39,3,3,0,0,1-3.48.72,15.71,15.71,0,0,0-5.91-1c-2.07.22-4.38,1.87-6.79,1.44-3.07-.55-4.65-4.23-7-6.47-2-1.91-4.57-2.79-6.86-4.17s-4.48-3.63-4.67-6.68c-.37-6,6.67-8.56,9.14-13C117.29,83.85,117.92,76.21,121.7,72.9Z"/></g></g></svg>